<svg xmlns="http://www.w3.org/2000/svg" viewBox="0 0 32 32" width="32" height="32">
  <defs>
    <style>
      .car { fill: #2563eb; }
      .damage { fill: #dc2626; }
      .wheel { fill: #374151; }
      .glass { fill: #60a5fa; opacity: 0.7; }
      .impact { fill: #fbbf24; stroke: #f59e0b; stroke-width: 0.5; }
    </style>
  </defs>
  
  <!-- Car body -->
  <rect x="4" y="12" width="14" height="8" rx="2" class="car"/>
  
  <!-- Car windows -->
  <rect x="5" y="13" width="5" height="3" rx="1" class="glass"/>
  <rect x="11" y="13" width="6" height="3" rx="1" class="glass"/>
  
  <!-- Wheels -->
  <circle cx="7" cy="22" r="2.5" class="wheel"/>
  <circle cx="15" cy="22" r="2.5" class="wheel"/>
  <circle cx="7" cy="22" r="1" fill="#9ca3af"/>
  <circle cx="15" cy="22" r="1" fill="#9ca3af"/>
  
  <!-- Damage/Impact area -->
  <rect x="18" y="14" width="3" height="4" class="damage"/>
  <rect x="17" y="15" width="1" height="2" class="damage"/>
  
  <!-- Impact lines/crash effect -->
  <path d="M22 12 L26 8 M22 16 L28 16 M22 20 L27 22" class="impact" stroke-width="1.5" fill="none"/>
  <circle cx="24" cy="10" r="1" class="impact"/>
  <circle cx="26" cy="14" r="0.5" class="impact"/>
  <circle cx="25" cy="18" r="0.8" class="impact"/>
  
  <!-- Legal scale symbol (small) -->
  <g transform="translate(2,2) scale(0.3)">
    <rect x="0" y="12" width="8" height="1" fill="#00c853"/>
    <rect x="3" y="6" width="2" height="6" fill="#00c853"/>
    <circle cx="1" cy="12" r="1.5" fill="#00c853"/>
    <circle cx="7" cy="12" r="1.5" fill="#00c853"/>
  </g>
</svg>